<svg xmlns="http://www.w3.org/2000/svg" xmlns:xlink="http://www.w3.org/1999/xlink" xmlns:lucid="lucid" width="1248.33" height="1053.48"><g transform="translate(101.5 1.5)" lucid:page-tab-id="0_0"><path d="M-500-500h2000v2000H-500z" fill="#fff"/><path d="M357.33 379.3a6 6 0 0 1 6-6H694a6 6 0 0 1 6 6v250.74a6 6 0 0 1-6 6H363.33a6 6 0 0 1-6-6z" stroke="#000" stroke-width="3" fill="#fff"/><use xlink:href="#a" transform="matrix(1,0,0,1,362.33333333333337,378.29296875) translate(7 21.52777777777778)"/><use xlink:href="#b" transform="matrix(1,0,0,1,362.33333333333337,378.29296875) translate(108.01 21.52777777777778)"/><use xlink:href="#c" transform="matrix(1,0,0,1,362.33333333333337,378.29296875) translate(144.01 21.52777777777778)"/><use xlink:href="#c" transform="matrix(1,0,0,1,362.33333333333337,378.29296875) translate(180.01 21.52777777777778)"/><use xlink:href="#c" transform="matrix(1,0,0,1,362.33333333333337,378.29296875) translate(216.01 21.52777777777778)"/><use xlink:href="#c" transform="matrix(1,0,0,1,362.33333333333337,378.29296875) translate(252.01 21.52777777777778)"/><use xlink:href="#d" transform="matrix(1,0,0,1,362.33333333333337,378.29296875) translate(288.01 21.52777777777778)"/><use xlink:href="#e" transform="matrix(1,0,0,1,362.33333333333337,378.29296875) translate(293.27258680555553 21.52777777777778)"/><use xlink:href="#f" transform="matrix(1,0,0,1,362.33333333333337,378.29296875) translate(7 53.79340277777778)"/><use xlink:href="#g" transform="matrix(1,0,0,1,362.33333333333337,378.29296875) translate(7 86.05902777777777)"/><use xlink:href="#h" transform="matrix(1,0,0,1,362.33333333333337,378.29296875) translate(144.01 86.05902777777777)"/><use xlink:href="#h" transform="matrix(1,0,0,1,362.33333333333337,378.29296875) translate(180.01 86.05902777777777)"/><use xlink:href="#h" transform="matrix(1,0,0,1,362.33333333333337,378.29296875) translate(216.01 86.05902777777777)"/><use xlink:href="#h" transform="matrix(1,0,0,1,362.33333333333337,378.29296875) translate(252.01 86.05902777777777)"/><use xlink:href="#i" transform="matrix(1,0,0,1,362.33333333333337,378.29296875) translate(288.01 86.05902777777777)"/><use xlink:href="#j" transform="matrix(1,0,0,1,362.33333333333337,378.29296875) translate(7 118.32465277777777)"/><use xlink:href="#h" transform="matrix(1,0,0,1,362.33333333333337,378.29296875) translate(144.01 118.32465277777777)"/><use xlink:href="#h" transform="matrix(1,0,0,1,362.33333333333337,378.29296875) translate(180.01 118.32465277777777)"/><use xlink:href="#h" transform="matrix(1,0,0,1,362.33333333333337,378.29296875) translate(216.01 118.32465277777777)"/><use xlink:href="#h" transform="matrix(1,0,0,1,362.33333333333337,378.29296875) translate(252.01 118.32465277777777)"/><use xlink:href="#i" transform="matrix(1,0,0,1,362.33333333333337,378.29296875) translate(288.01 118.32465277777777)"/><use xlink:href="#k" transform="matrix(1,0,0,1,362.33333333333337,378.29296875) translate(7 150.59027777777777)"/><use xlink:href="#l" transform="matrix(1,0,0,1,362.33333333333337,378.29296875) translate(7 182.85590277777777)"/><use xlink:href="#m" transform="matrix(1,0,0,1,362.33333333333337,378.29296875) translate(7 215.12152777777777)"/><use xlink:href="#n" transform="matrix(1,0,0,1,362.33333333333337,378.29296875) translate(115.79991319444443 215.12152777777777)"/><use xlink:href="#o" transform="matrix(1,0,0,1,362.33333333333337,378.29296875) translate(7 247.38715277777777)"/><path d="M-40 26a6 6 0 0 1 6-6h330.67a6 6 0 0 1 6 6v218.48a6 6 0 0 1-6 6H-34a6 6 0 0 1-6-6z" stroke="#000" stroke-width="3" fill="#fff"/><use xlink:href="#p" transform="matrix(1,0,0,1,-35,25) translate(7 21.52777777777778)"/><use xlink:href="#b" transform="matrix(1,0,0,1,-35,25) translate(108.01 21.52777777777778)"/><use xlink:href="#c" transform="matrix(1,0,0,1,-35,25) translate(144.01 21.52777777777778)"/><use xlink:href="#c" transform="matrix(1,0,0,1,-35,25) translate(180.01 21.52777777777778)"/><use xlink:href="#c" transform="matrix(1,0,0,1,-35,25) translate(216.01 21.52777777777778)"/><use xlink:href="#c" transform="matrix(1,0,0,1,-35,25) translate(252.01 21.52777777777778)"/><use xlink:href="#d" transform="matrix(1,0,0,1,-35,25) translate(288.01 21.52777777777778)"/><use xlink:href="#e" transform="matrix(1,0,0,1,-35,25) translate(293.27258680555553 21.52777777777778)"/><use xlink:href="#f" transform="matrix(1,0,0,1,-35,25) translate(7 53.79340277777778)"/><use xlink:href="#q" transform="matrix(1,0,0,1,-35,25) translate(7 86.05902777777777)"/><use xlink:href="#r" transform="matrix(1,0,0,1,-35,25) translate(7 118.32465277777777)"/><use xlink:href="#s" transform="matrix(1,0,0,1,-35,25) translate(7 150.59027777777777)"/><use xlink:href="#t" transform="matrix(1,0,0,1,-35,25) translate(7 182.85590277777777)"/><use xlink:href="#o" transform="matrix(1,0,0,1,-35,25) translate(7 215.12152777777777)"/><path d="M460 6a6 6 0 0 1 6-6h330.67a6 6 0 0 1 6 6v186.22a6 6 0 0 1-6 6H466a6 6 0 0 1-6-6z" stroke="#000" stroke-width="3" fill="#fff"/><g><use xlink:href="#u" transform="matrix(1,0,0,1,465,5) translate(7 27.43402777777778)"/><use xlink:href="#b" transform="matrix(1,0,0,1,465,5) translate(144.01 27.43402777777778)"/><use xlink:href="#c" transform="matrix(1,0,0,1,465,5) translate(180.01 27.43402777777778)"/><use xlink:href="#c" transform="matrix(1,0,0,1,465,5) translate(216.01 27.43402777777778)"/><use xlink:href="#c" transform="matrix(1,0,0,1,465,5) translate(252.01 27.43402777777778)"/><use xlink:href="#d" transform="matrix(1,0,0,1,465,5) translate(288.01 27.43402777777778)"/><use xlink:href="#e" transform="matrix(1,0,0,1,465,5) translate(293.27258680555553 27.43402777777778)"/><use xlink:href="#v" transform="matrix(1,0,0,1,465,5) translate(7 59.69965277777778)"/><use xlink:href="#w" transform="matrix(1,0,0,1,465,5) translate(7 91.96527777777777)"/><use xlink:href="#x" transform="matrix(1,0,0,1,465,5) translate(7 124.23090277777777)"/><use xlink:href="#y" transform="matrix(1,0,0,1,465,5) translate(7 156.49652777777777)"/><use xlink:href="#z" transform="matrix(1,0,0,1,465,5) translate(7 188.76215277777777)"/></g><path d="M802.67 746a6 6 0 0 1 6-6h330.66a6 6 0 0 1 6 6v218.48a6 6 0 0 1-6 6H808.67a6 6 0 0 1-6-6z" stroke="#000" stroke-width="3" fill="#fff"/><g><use xlink:href="#A" transform="matrix(1,0,0,1,807.6666666666667,745) translate(7 21.52777777777778)"/><use xlink:href="#b" transform="matrix(1,0,0,1,807.6666666666667,745) translate(144.01 21.52777777777778)"/><use xlink:href="#c" transform="matrix(1,0,0,1,807.6666666666667,745) translate(180.01 21.52777777777778)"/><use xlink:href="#c" transform="matrix(1,0,0,1,807.6666666666667,745) translate(216.01 21.52777777777778)"/><use xlink:href="#c" transform="matrix(1,0,0,1,807.6666666666667,745) translate(252.01 21.52777777777778)"/><use xlink:href="#d" transform="matrix(1,0,0,1,807.6666666666667,745) translate(288.01 21.52777777777778)"/><use xlink:href="#e" transform="matrix(1,0,0,1,807.6666666666667,745) translate(293.27258680555553 21.52777777777778)"/><use xlink:href="#B" transform="matrix(1,0,0,1,807.6666666666667,745) translate(7 53.79340277777778)"/><use xlink:href="#C" transform="matrix(1,0,0,1,807.6666666666667,745) translate(7 86.05902777777777)"/><use xlink:href="#h" transform="matrix(1,0,0,1,807.6666666666667,745) translate(108.01 86.05902777777777)"/><use xlink:href="#h" transform="matrix(1,0,0,1,807.6666666666667,745) translate(144.01 86.05902777777777)"/><use xlink:href="#h" transform="matrix(1,0,0,1,807.6666666666667,745) translate(180.01 86.05902777777777)"/><use xlink:href="#h" transform="matrix(1,0,0,1,807.6666666666667,745) translate(216.01 86.05902777777777)"/><use xlink:href="#h" transform="matrix(1,0,0,1,807.6666666666667,745) translate(252.01 86.05902777777777)"/><use xlink:href="#i" transform="matrix(1,0,0,1,807.6666666666667,745) translate(288.01 86.05902777777777)"/><use xlink:href="#D" transform="matrix(1,0,0,1,807.6666666666667,745) translate(7 118.32465277777777)"/><use xlink:href="#E" transform="matrix(1,0,0,1,807.6666666666667,745) translate(7 150.59027777777777)"/><use xlink:href="#F" transform="matrix(1,0,0,1,807.6666666666667,745) translate(7 182.85590277777777)"/><use xlink:href="#o" transform="matrix(1,0,0,1,807.6666666666667,745) translate(7 215.12152777777777)"/></g><path d="M-100 826a6 6 0 0 1 6-6h330.67a6 6 0 0 1 6 6v218.48a6 6 0 0 1-6 6H-94a6 6 0 0 1-6-6z" stroke="#000" stroke-width="3" fill="#fff"/><g><use xlink:href="#G" transform="matrix(1,0,0,1,-95,825) translate(7 21.52777777777778)"/><use xlink:href="#b" transform="matrix(1,0,0,1,-95,825) translate(216.01 21.52777777777778)"/><use xlink:href="#c" transform="matrix(1,0,0,1,-95,825) translate(252.01 21.52777777777778)"/><use xlink:href="#d" transform="matrix(1,0,0,1,-95,825) translate(288.01 21.52777777777778)"/><use xlink:href="#e" transform="matrix(1,0,0,1,-95,825) translate(293.27258680555553 21.52777777777778)"/><use xlink:href="#f" transform="matrix(1,0,0,1,-95,825) translate(7 53.79340277777778)"/><use xlink:href="#C" transform="matrix(1,0,0,1,-95,825) translate(7 86.05902777777777)"/><use xlink:href="#h" transform="matrix(1,0,0,1,-95,825) translate(108.01 86.05902777777777)"/><use xlink:href="#h" transform="matrix(1,0,0,1,-95,825) translate(144.01 86.05902777777777)"/><use xlink:href="#h" transform="matrix(1,0,0,1,-95,825) translate(180.01 86.05902777777777)"/><use xlink:href="#h" transform="matrix(1,0,0,1,-95,825) translate(216.01 86.05902777777777)"/><use xlink:href="#h" transform="matrix(1,0,0,1,-95,825) translate(252.01 86.05902777777777)"/><use xlink:href="#i" transform="matrix(1,0,0,1,-95,825) translate(288.01 86.05902777777777)"/><use xlink:href="#H" transform="matrix(1,0,0,1,-95,825) translate(7 118.32465277777777)"/><use xlink:href="#I" transform="matrix(1,0,0,1,-95,825) translate(7 150.59027777777777)"/><use xlink:href="#J" transform="matrix(1,0,0,1,-95,825) translate(7 182.85590277777777)"/><use xlink:href="#o" transform="matrix(1,0,0,1,-95,825) translate(7 215.12152777777777)"/></g><path d="M252 400v60h66l34 20V380l-34 20z" fill-opacity="0"/><path d="M252 430h66z" stroke="#000" stroke-width="2" fill="#fff"/><path d="M347 386.67l5 10-5 10zM318 430l29-33.33M347 420l5 10-5 10zm-29 10h29M347 453.33l5 10-5 10zM318 430l29 33.33" stroke="#000" stroke-width="2"/><path d="M251 430H137.33a6 6 0 0 1-6-6V270.48" stroke="#3a414a" stroke-width="2" fill="none"/><path d="M252 430.98h-1.03v-1.96H252z" stroke="#3a414a" stroke-width=".05" fill="#3a414a"/><path d="M131.33 255.22l4.64 14.26h-9.27z" stroke="#3a414a" stroke-width="2" fill="#3a414a"/><g><path d="M654.73 273.3h-60v66l-20 34h100l-20-34z" fill-opacity="0"/><path d="M624.73 273.3v66z" stroke="#000" stroke-width="2" fill="#fff"/><path d="M668.07 368.3l-10 5-10-5zm-43.34-29l33.34 29M634.73 368.3l-10 5-10-5zm-10-29v29M601.4 368.3l-10 5-10-5zm23.33-29l-33.33 29" stroke="#000" stroke-width="2"/></g><path d="M624.73 272.3V218.2" stroke="#3a414a" stroke-width="2" fill="none"/><path d="M625.7 273.3h-1.94v-1.03h1.95z" stroke="#3a414a" stroke-width=".05" fill="#3a414a"/><path d="M624.73 202.95l4.64 14.27h-9.27z" stroke="#3a414a" stroke-width="2" fill="#3a414a"/><g><path d="M172.4 820.98l188.58-188.6" stroke="#000" stroke-width="2" stroke-linecap="round" fill="none"/></g><g><path d="M321.4 632.4l46.18 39.8" stroke="#000" stroke-width="2" stroke-linecap="round" fill="none"/></g><g><path d="M314.8 641.4L361 681.2" stroke="#000" stroke-width="2" stroke-linecap="round" fill="none"/></g><g><path d="M181.4 761.4l46.18 39.8" stroke="#000" stroke-width="2" stroke-linecap="round" fill="none"/></g><g><path d="M701.4 621.4l97.82 126.16" stroke="#000" stroke-width="2" stroke-linecap="round" fill="none"/></g><g><path d="M701.4 667.87l39.48-46.46" stroke="#000" stroke-width="2" stroke-linecap="round" fill="none"/></g><g><path d="M706.74 678.85l39.47-46.46" stroke="#000" stroke-width="2" stroke-linecap="round" fill="none"/></g><g><path d="M770.87 759.43l45.07-53.07" stroke="#000" stroke-width="2" stroke-linecap="round" fill="none"/></g><path d="M293.75 430c0 9.32-7.56 16.87-16.88 16.87-9.3 0-16.87-7.55-16.87-16.87s7.56-16.87 16.87-16.87c9.32 0 16.88 7.55 16.88 16.87zM641.6 296.87c0 9.32-7.55 16.88-16.87 16.88s-16.87-7.56-16.87-16.88c0-9.3 7.55-16.87 16.87-16.87s16.88 7.56 16.88 16.87zM242.67 765.84c0 9.3-7.56 16.87-16.88 16.87-9.33 0-16.88-7.55-16.88-16.87 0-9.3 7.55-16.87 16.87-16.87 9.3 0 16.87 7.56 16.87 16.88zM793.75 716.87c0 9.32-7.56 16.88-16.88 16.88S760 726.2 760 716.87 767.55 700 776.87 700s16.88 7.55 16.88 16.87z" stroke="#000" stroke-width="2" fill="#fff"/><path d="M641.6 236.4a6 6 0 0 1 6-6h71.44a6 6 0 0 1 6 6v24.9a6 6 0 0 1-6 6H647.6a6 6 0 0 1-6-6z" fill="none"/><g><use xlink:href="#K" transform="matrix(1,0,0,1,646.6063765640253,235.40752604166667) translate(0 21.58376736111111)"/></g><path d="M145.56 349.1a6 6 0 0 1 6-6H257.8a6 6 0 0 1 6 6V374a6 6 0 0 1-6 6H151.57a6 6 0 0 1-6-6z" fill="none"/><g><use xlink:href="#L" transform="matrix(1,0,0,1,150.55664668788407,348.10197916666664) translate(0 21.58376736111111)"/></g><path d="M280 720.45a6 6 0 0 1 6-6h87.26a6 6 0 0 1 6 6v24.9a6 6 0 0 1-6 6H286a6 6 0 0 1-6-6z" fill="none"/><g><use xlink:href="#M" transform="matrix(1,0,0,1,285,719.4452771582894) translate(0 21.58376736111111)"/></g><path d="M760 648.86a6 6 0 0 1 6-6h87.26a6 6 0 0 1 6 6v24.9a6 6 0 0 1-6 6H766a6 6 0 0 1-6-6z" fill="none"/><g><use xlink:href="#M" transform="matrix(1,0,0,1,765,647.8629764484208) translate(0 21.58376736111111)"/></g><defs><path d="M49 0l509-1490h400L1480 0h-339l-115-346H497L386 0H49zm524-585h374c-75-213-124-402-192-666-66 268-110 453-182 666" id="N"/><path d="M135 0v-1490h581c339 0 533 192 533 485 0 204-94 351-264 424L1302 0H964L680-532H440V0H135zm305-779h220c186 0 274-77 274-226 0-150-88-233-275-233H440v459" id="O"/><path d="M75-1237v-253h1217v253H837V0H531v-1237H75" id="P"/><path d="M440-1490V0H135v-1490h305" id="Q"/><path d="M786 20C389 20 94-260 94-744c0-487 299-766 692-766 339 0 597 194 641 529h-309c-28-162-156-258-326-258-233 0-388 179-388 495 0 323 157 493 387 493 170 0 298-97 328-259h309c-34 277-266 530-642 530" id="R"/><path d="M135 0v-1490h305v1237h643V0H135" id="S"/><path d="M135 0v-1490h997v253H440v360h640v249H440v375h694V0H135" id="T"/><g id="a"><use transform="matrix(0.010850694444444444,0,0,0.010850694444444444,0,0)" xlink:href="#N"/><use transform="matrix(0.010850694444444444,0,0,0.010850694444444444,16.590711805555554,0)" xlink:href="#O"/><use transform="matrix(0.010850694444444444,0,0,0.010850694444444444,31.18489583333333,0)" xlink:href="#P"/><use transform="matrix(0.010850694444444444,0,0,0.010850694444444444,46.017795138888886,0)" xlink:href="#Q"/><use transform="matrix(0.010850694444444444,0,0,0.010850694444444444,52.25694444444444,0)" xlink:href="#R"/><use transform="matrix(0.010850694444444444,0,0,0.010850694444444444,68.69574652777777,0)" xlink:href="#S"/><use transform="matrix(0.010850694444444444,0,0,0.010850694444444444,81.26085069444444,0)" xlink:href="#T"/></g><path d="M128 0v-1118h300V0H128zm150-1264c-91 0-165-68-165-154 0-85 74-154 165-154 90 0 165 69 165 154 0 86-75 154-165 154" id="U"/><path d="M537 19C279 19 81-185 81-557c0-382 206-575 454-575 190 0 278 113 318 202h10v-560h300V0H868v-179h-15C812-89 719 19 537 19zm92-241c153 0 240-134 240-336 0-203-86-334-240-334-158 0-240 138-240 334 0 197 84 336 240 336" id="V"/><g id="e"><use transform="matrix(0.010850694444444444,0,0,0.010850694444444444,0,0)" xlink:href="#U"/><use transform="matrix(0.010850694444444444,0,0,0.010850694444444444,6.022135416666666,0)" xlink:href="#V"/></g><path d="M538 24C308 24 148-78 108-271l171-41c32 123 123 178 257 178 156 0 256-77 256-169 0-77-54-128-164-154l-186-44c-203-48-300-148-300-305 0-192 176-326 414-326 230 0 351 112 402 269l-163 42c-31-80-94-158-238-158-133 0-233 69-233 162 0 83 57 129 188 160l169 40c203 48 298 149 298 302 0 196-179 339-441 339" id="W"/><path d="M613 24c-304 0-509-231-509-576 0-350 205-580 509-580 305 0 511 230 511 580 0 345-206 576-511 576zm0-161c226 0 329-195 329-415 0-222-103-419-329-419-223 0-326 196-326 419 0 220 103 415 326 415" id="X"/><path d="M537 14c-226 0-379-139-379-422v-710h180v695c0 172 97 275 253 275 160 0 281-109 281-300v-670h181V0H879v-209C806-46 684 14 537 14" id="Y"/><path d="M158 0v-1118h174v172h12c41-113 157-188 290-188 26 0 70 2 91 3v181c-11-2-60-10-108-10-161 0-279 109-279 260V0H158" id="Z"/><path d="M613 24c-304 0-509-231-509-576 0-350 205-580 509-580 216 0 392 114 453 309l-173 49c-33-115-133-197-280-197-223 0-326 196-326 419 0 220 103 415 326 415 150 0 252-85 285-206l172 49C1010-95 832 24 613 24" id="aa"/><path d="M628 24c-324 0-524-230-524-574 0-343 198-582 503-582 237 0 487 146 487 559v75H286c9 234 145 362 343 362 132 0 231-58 273-172l174 48C1024-91 857 24 628 24zM287-650h624c-17-190-120-322-304-322-192 0-309 151-320 322" id="ab"/><path d="M934 0v166H0V0h934" id="ac"/><path d="M158 0v-1118h180V0H158zm91-1301c-68 0-125-53-125-119s57-119 125-119c69 0 126 53 126 119s-57 119-126 119" id="ad"/><path d="M577 24c-279 0-473-224-473-580 0-354 195-576 474-576 218 0 287 134 324 193h14v-551h180V0H922v-173h-20C865-111 790 24 577 24zm27-161c203 0 314-172 314-421 0-247-108-413-314-413-212 0-317 181-317 413 0 235 108 421 317 421" id="ae"/><g id="g"><use transform="matrix(0.010850694444444444,0,0,0.010850694444444444,0,0)" xlink:href="#W"/><use transform="matrix(0.010850694444444444,0,0,0.010850694444444444,11.729600694444445,0)" xlink:href="#X"/><use transform="matrix(0.010850694444444444,0,0,0.010850694444444444,25.05425347222222,0)" xlink:href="#Y"/><use transform="matrix(0.010850694444444444,0,0,0.010850694444444444,38.19444444444444,0)" xlink:href="#Z"/><use transform="matrix(0.010850694444444444,0,0,0.010850694444444444,46.191406249999986,0)" xlink:href="#aa"/><use transform="matrix(0.010850694444444444,0,0,0.010850694444444444,58.886718749999986,0)" xlink:href="#ab"/><use transform="matrix(0.010850694444444444,0,0,0.010850694444444444,71.84244791666666,0)" xlink:href="#ac"/><use transform="matrix(0.010850694444444444,0,0,0.010850694444444444,82.72569444444444,0)" xlink:href="#ad"/><use transform="matrix(0.010850694444444444,0,0,0.010850694444444444,88.10763888888889,0)" xlink:href="#ae"/></g><path d="M218-607c0-325 108-727 258-974h175c-155 315-250 682-250 974 0 265 78 531 250 886H476C306-10 218-315 218-607" id="af"/><path d="M180 0v-1490h901v168H370v510h643v168H370V0H180" id="ag"/><path d="M180 0v-1490h190c0 262 1 526-3 784 217-279 467-523 702-784h249L716-845 1319 0h-225L585-716 370-489V0H180" id="ah"/><path d="M96 279C273-86 346-350 346-607c0-292-95-659-250-974h175c150 246 258 650 258 974 0 297-91 602-258 886H96" id="ai"/><g id="i"><use transform="matrix(0.010850694444444444,0,0,0.010850694444444444,0,0)" xlink:href="#af"/><use transform="matrix(0.010850694444444444,0,0,0.010850694444444444,8.10546875,0)" xlink:href="#ag"/><use transform="matrix(0.010850694444444444,0,0,0.010850694444444444,21.223958333333332,0)" xlink:href="#ah"/><use transform="matrix(0.010850694444444444,0,0,0.010850694444444444,36.154513888888886,0)" xlink:href="#ai"/></g><path d="M338-1490V0H158v-1490h180" id="aj"/><path d="M598-1118v154H368v674c0 100 37 144 132 144 23 0 62-6 92-12L629-6c-37 13-88 20-134 20-193 0-307-107-307-290v-688H20v-154h168v-266h180v266h230" id="ak"/><g id="j"><use transform="matrix(0.010850694444444444,0,0,0.010850694444444444,0,0)" xlink:href="#aa"/><use transform="matrix(0.010850694444444444,0,0,0.010850694444444444,12.6953125,0)" xlink:href="#aj"/><use transform="matrix(0.010850694444444444,0,0,0.010850694444444444,18.077256944444443,0)" xlink:href="#Y"/><use transform="matrix(0.010850694444444444,0,0,0.010850694444444444,31.217447916666664,0)" xlink:href="#W"/><use transform="matrix(0.010850694444444444,0,0,0.010850694444444444,42.94704861111111,0)" xlink:href="#ak"/><use transform="matrix(0.010850694444444444,0,0,0.010850694444444444,50,0)" xlink:href="#ab"/><use transform="matrix(0.010850694444444444,0,0,0.010850694444444444,62.955729166666664,0)" xlink:href="#Z"/><use transform="matrix(0.010850694444444444,0,0,0.010850694444444444,71.32161458333333,0)" xlink:href="#ac"/><use transform="matrix(0.010850694444444444,0,0,0.010850694444444444,82.20486111111111,0)" xlink:href="#ad"/><use transform="matrix(0.010850694444444444,0,0,0.010850694444444444,87.58680555555556,0)" xlink:href="#ae"/></g><g id="k"><use transform="matrix(0.010850694444444444,0,0,0.010850694444444444,0,0)" xlink:href="#ak"/><use transform="matrix(0.010850694444444444,0,0,0.010850694444444444,7.269965277777778,0)" xlink:href="#ad"/><use transform="matrix(0.010850694444444444,0,0,0.010850694444444444,12.651909722222221,0)" xlink:href="#ak"/><use transform="matrix(0.010850694444444444,0,0,0.010850694444444444,19.921875,0)" xlink:href="#aj"/><use transform="matrix(0.010850694444444444,0,0,0.010850694444444444,25.303819444444443,0)" xlink:href="#ab"/></g><path d="M338-670V0H158v-1118h173l1 207c72-158 192-221 342-221 226 0 378 139 378 422V0H872v-695c0-172-96-275-252-275-161 0-282 109-282 300" id="al"/><g id="l"><use transform="matrix(0.010850694444444444,0,0,0.010850694444444444,0,0)" xlink:href="#aa"/><use transform="matrix(0.010850694444444444,0,0,0.010850694444444444,12.6953125,0)" xlink:href="#X"/><use transform="matrix(0.010850694444444444,0,0,0.010850694444444444,26.01996527777778,0)" xlink:href="#al"/><use transform="matrix(0.010850694444444444,0,0,0.010850694444444444,39.14930555555556,0)" xlink:href="#ak"/><use transform="matrix(0.010850694444444444,0,0,0.010850694444444444,46.20225694444445,0)" xlink:href="#ab"/><use transform="matrix(0.010850694444444444,0,0,0.010850694444444444,59.15798611111112,0)" xlink:href="#al"/><use transform="matrix(0.010850694444444444,0,0,0.010850694444444444,72.28732638888889,0)" xlink:href="#ak"/></g><path d="M158 418v-1536h174v179h20c37-59 106-193 324-193 279 0 474 222 474 576 0 356-194 580-473 580-213 0-288-135-325-197h-14v591H158zm492-555c209 0 317-186 317-421 0-232-105-413-317-413-206 0-314 166-314 413 0 249 111 421 314 421" id="am"/><path d="M677 24c-213 0-288-135-325-197h-20V0H158v-1490h180v551h14c37-59 106-193 324-193 279 0 474 222 474 576 0 356-194 580-473 580zm-27-161c209 0 317-186 317-421 0-232-105-413-317-413-206 0-314 166-314 413 0 249 111 421 314 421" id="an"/><path d="M338-670V0H158v-1490h180v566c73-149 190-208 336-208 226 0 379 139 379 422V0H872v-695c0-172-96-275-252-275-161 0-282 109-282 300" id="ao"/><g id="m"><use transform="matrix(0.010850694444444444,0,0,0.010850694444444444,0,0)" xlink:href="#am"/><use transform="matrix(0.010850694444444444,0,0,0.010850694444444444,13.606770833333332,0)" xlink:href="#Y"/><use transform="matrix(0.010850694444444444,0,0,0.010850694444444444,26.746961805555554,0)" xlink:href="#an"/><use transform="matrix(0.010850694444444444,0,0,0.010850694444444444,40.353732638888886,0)" xlink:href="#aj"/><use transform="matrix(0.010850694444444444,0,0,0.010850694444444444,45.73567708333333,0)" xlink:href="#ad"/><use transform="matrix(0.010850694444444444,0,0,0.010850694444444444,51.11762152777778,0)" xlink:href="#W"/><use transform="matrix(0.010850694444444444,0,0,0.010850694444444444,62.84722222222221,0)" xlink:href="#ao"/><use transform="matrix(0.010850694444444444,0,0,0.010850694444444444,75.98741319444443,0)" xlink:href="#ab"/><use transform="matrix(0.010850694444444444,0,0,0.010850694444444444,88.94314236111111,0)" xlink:href="#ae"/></g><path d="M471 26C259 26 90-98 90-318c0-256 228-303 435-329 202-27 287-16 287-108 0-139-79-219-234-219-161 0-248 86-283 164l-173-57c86-203 278-265 451-265 150 0 419 46 419 395V0H815v-152h-12C765-73 660 26 471 26zm31-159c199 0 310-134 310-271v-155c-30 35-226 55-295 64-131 17-246 59-246 186 0 116 97 176 231 176" id="ap"/><g id="n"><use transform="matrix(0.010850694444444444,0,0,0.010850694444444444,0,0)" xlink:href="#ap"/><use transform="matrix(0.010850694444444444,0,0,0.010850694444444444,12.47829861111111,0)" xlink:href="#ak"/></g><path d="M681 22C323 22 94-145 85-462h297c10 151 131 226 296 226 163 0 271-77 271-190 0-102-95-149-257-189l-164-41c-252-61-403-188-403-405 0-269 236-449 560-449 330 0 546 183 551 445H941c-11-119-106-188-259-188-156 0-244 72-244 172-3 156 226 185 373 221 250 61 445 186 445 436 0 271-213 446-575 446" id="aq"/><path d="M789 20C394 20 94-260 94-744c0-487 300-766 695-766s695 279 695 766c0 485-300 764-695 764zm0-271c231 0 385-174 385-493 0-321-154-495-385-495s-385 175-385 495c0 319 154 493 385 493" id="ar"/><path d="M750 21c-371 0-615-218-615-544v-967h305v942c0 174 123 299 310 299s309-125 309-299v-942h306v967c0 326-247 544-615 544" id="as"/><g id="p"><use transform="matrix(0.010850694444444444,0,0,0.010850694444444444,0,0)" xlink:href="#aq"/><use transform="matrix(0.010850694444444444,0,0,0.010850694444444444,14.55078125,0)" xlink:href="#ar"/><use transform="matrix(0.010850694444444444,0,0,0.010850694444444444,31.673177083333332,0)" xlink:href="#as"/><use transform="matrix(0.010850694444444444,0,0,0.010850694444444444,47.93836805555556,0)" xlink:href="#O"/><use transform="matrix(0.010850694444444444,0,0,0.010850694444444444,62.53255208333333,0)" xlink:href="#R"/><use transform="matrix(0.010850694444444444,0,0,0.010850694444444444,78.97135416666667,0)" xlink:href="#T"/></g><path d="M158 0v-1118h175l1 205c55-151 181-225 313-225 147 0 245 90 285 228 53-141 190-228 352-228 194 0 352 125 352 384V0h-181v-749c0-161-105-225-225-225-151 0-243 103-243 244V0H807v-767c0-124-93-207-219-207-131 0-250 92-250 270V0H158" id="at"/><g id="q"><use transform="matrix(0.010850694444444444,0,0,0.010850694444444444,0,0)" xlink:href="#al"/><use transform="matrix(0.010850694444444444,0,0,0.010850694444444444,13.129340277777777,0)" xlink:href="#ap"/><use transform="matrix(0.010850694444444444,0,0,0.010850694444444444,25.60763888888889,0)" xlink:href="#at"/><use transform="matrix(0.010850694444444444,0,0,0.010850694444444444,45.07378472222221,0)" xlink:href="#ab"/></g><g id="r"><use transform="matrix(0.010850694444444444,0,0,0.010850694444444444,0,0)" xlink:href="#an"/><use transform="matrix(0.010850694444444444,0,0,0.010850694444444444,13.823784722222221,0)" xlink:href="#ap"/><use transform="matrix(0.010850694444444444,0,0,0.010850694444444444,26.302083333333332,0)" xlink:href="#W"/><use transform="matrix(0.010850694444444444,0,0,0.010850694444444444,38.03168402777778,0)" xlink:href="#ab"/><use transform="matrix(0.010850694444444444,0,0,0.010850694444444444,50.98741319444444,0)" xlink:href="#ac"/><use transform="matrix(0.010850694444444444,0,0,0.010850694444444444,61.12196180555555,0)" xlink:href="#Y"/><use transform="matrix(0.010850694444444444,0,0,0.010850694444444444,74.26215277777777,0)" xlink:href="#Z"/><use transform="matrix(0.010850694444444444,0,0,0.010850694444444444,82.97526041666667,0)" xlink:href="#aj"/></g><g id="s"><use transform="matrix(0.010850694444444444,0,0,0.010850694444444444,0,0)" xlink:href="#am"/><use transform="matrix(0.010850694444444444,0,0,0.010850694444444444,13.606770833333332,0)" xlink:href="#X"/><use transform="matrix(0.010850694444444444,0,0,0.010850694444444444,26.931423611111104,0)" xlink:href="#aj"/><use transform="matrix(0.010850694444444444,0,0,0.010850694444444444,32.31336805555555,0)" xlink:href="#ad"/><use transform="matrix(0.010850694444444444,0,0,0.010850694444444444,37.69531249999999,0)" xlink:href="#ak"/><use transform="matrix(0.010850694444444444,0,0,0.010850694444444444,44.96527777777778,0)" xlink:href="#ad"/><use transform="matrix(0.010850694444444444,0,0,0.010850694444444444,50.34722222222221,0)" xlink:href="#aa"/><use transform="matrix(0.010850694444444444,0,0,0.010850694444444444,63.2595486111111,0)" xlink:href="#ap"/><use transform="matrix(0.010850694444444444,0,0,0.010850694444444444,75.73784722222221,0)" xlink:href="#aj"/><use transform="matrix(0.010850694444444444,0,0,0.010850694444444444,81.11979166666666,0)" xlink:href="#ac"/><use transform="matrix(0.010850694444444444,0,0,0.010850694444444444,92.00303819444444,0)" xlink:href="#aj"/><use transform="matrix(0.010850694444444444,0,0,0.010850694444444444,97.38498263888889,0)" xlink:href="#ap"/><use transform="matrix(0.010850694444444444,0,0,0.010850694444444444,109.86328125,0)" xlink:href="#an"/><use transform="matrix(0.010850694444444444,0,0,0.010850694444444444,123.47005208333333,0)" xlink:href="#ab"/><use transform="matrix(0.010850694444444444,0,0,0.010850694444444444,136.42578125,0)" xlink:href="#aj"/></g><g id="t"><use transform="matrix(0.010850694444444444,0,0,0.010850694444444444,0,0)" xlink:href="#am"/><use transform="matrix(0.010850694444444444,0,0,0.010850694444444444,13.606770833333332,0)" xlink:href="#X"/><use transform="matrix(0.010850694444444444,0,0,0.010850694444444444,26.931423611111104,0)" xlink:href="#aj"/><use transform="matrix(0.010850694444444444,0,0,0.010850694444444444,32.31336805555555,0)" xlink:href="#ad"/><use transform="matrix(0.010850694444444444,0,0,0.010850694444444444,37.69531249999999,0)" xlink:href="#ak"/><use transform="matrix(0.010850694444444444,0,0,0.010850694444444444,44.96527777777778,0)" xlink:href="#ad"/><use transform="matrix(0.010850694444444444,0,0,0.010850694444444444,50.34722222222221,0)" xlink:href="#aa"/><use transform="matrix(0.010850694444444444,0,0,0.010850694444444444,63.2595486111111,0)" xlink:href="#ap"/><use transform="matrix(0.010850694444444444,0,0,0.010850694444444444,75.73784722222221,0)" xlink:href="#aj"/><use transform="matrix(0.010850694444444444,0,0,0.010850694444444444,81.11979166666666,0)" xlink:href="#ac"/><use transform="matrix(0.010850694444444444,0,0,0.010850694444444444,91.25434027777777,0)" xlink:href="#aa"/><use transform="matrix(0.010850694444444444,0,0,0.010850694444444444,103.94965277777777,0)" xlink:href="#X"/><use transform="matrix(0.010850694444444444,0,0,0.010850694444444444,117.27430555555556,0)" xlink:href="#aj"/><use transform="matrix(0.010850694444444444,0,0,0.010850694444444444,122.65625,0)" xlink:href="#X"/><use transform="matrix(0.010850694444444444,0,0,0.010850694444444444,135.98090277777777,0)" xlink:href="#Z"/></g><g id="u"><use transform="matrix(0.010850694444444444,0,0,0.010850694444444444,0,0)" xlink:href="#R"/><use transform="matrix(0.010850694444444444,0,0,0.010850694444444444,16.438802083333332,0)" xlink:href="#S"/><use transform="matrix(0.010850694444444444,0,0,0.010850694444444444,29.00390625,0)" xlink:href="#as"/><use transform="matrix(0.010850694444444444,0,0,0.010850694444444444,45.26909722222222,0)" xlink:href="#aq"/><use transform="matrix(0.010850694444444444,0,0,0.010850694444444444,59.81987847222222,0)" xlink:href="#P"/><use transform="matrix(0.010850694444444444,0,0,0.010850694444444444,74.65277777777777,0)" xlink:href="#T"/><use transform="matrix(0.010850694444444444,0,0,0.010850694444444444,88.15104166666666,0)" xlink:href="#O"/></g><g id="w"><use transform="matrix(0.010850694444444444,0,0,0.010850694444444444,0,0)" xlink:href="#ak"/><use transform="matrix(0.010850694444444444,0,0,0.010850694444444444,7.052951388888888,0)" xlink:href="#X"/><use transform="matrix(0.010850694444444444,0,0,0.010850694444444444,20.377604166666664,0)" xlink:href="#am"/><use transform="matrix(0.010850694444444444,0,0,0.010850694444444444,33.984375,0)" xlink:href="#ad"/><use transform="matrix(0.010850694444444444,0,0,0.010850694444444444,39.36631944444444,0)" xlink:href="#aa"/><use transform="matrix(0.010850694444444444,0,0,0.010850694444444444,52.06163194444444,0)" xlink:href="#ac"/><use transform="matrix(0.010850694444444444,0,0,0.010850694444444444,62.94487847222221,0)" xlink:href="#aj"/><use transform="matrix(0.010850694444444444,0,0,0.010850694444444444,68.32682291666666,0)" xlink:href="#ap"/><use transform="matrix(0.010850694444444444,0,0,0.010850694444444444,80.80512152777777,0)" xlink:href="#an"/><use transform="matrix(0.010850694444444444,0,0,0.010850694444444444,94.41189236111111,0)" xlink:href="#ab"/><use transform="matrix(0.010850694444444444,0,0,0.010850694444444444,107.36762152777777,0)" xlink:href="#aj"/></g><g id="x"><use transform="matrix(0.010850694444444444,0,0,0.010850694444444444,0,0)" xlink:href="#aa"/><use transform="matrix(0.010850694444444444,0,0,0.010850694444444444,12.6953125,0)" xlink:href="#Z"/><use transform="matrix(0.010850694444444444,0,0,0.010850694444444444,20.692274305555557,0)" xlink:href="#ab"/><use transform="matrix(0.010850694444444444,0,0,0.010850694444444444,33.865017361111114,0)" xlink:href="#ap"/><use transform="matrix(0.010850694444444444,0,0,0.010850694444444444,46.34331597222223,0)" xlink:href="#ak"/><use transform="matrix(0.010850694444444444,0,0,0.010850694444444444,53.39626736111112,0)" xlink:href="#ab"/><use transform="matrix(0.010850694444444444,0,0,0.010850694444444444,66.35199652777779,0)" xlink:href="#ae"/><use transform="matrix(0.010850694444444444,0,0,0.010850694444444444,79.95876736111111,0)" xlink:href="#ac"/><use transform="matrix(0.010850694444444444,0,0,0.010850694444444444,90.09331597222221,0)" xlink:href="#ap"/><use transform="matrix(0.010850694444444444,0,0,0.010850694444444444,102.57161458333334,0)" xlink:href="#ak"/></g><g id="y"><use transform="matrix(0.010850694444444444,0,0,0.010850694444444444,0,0)" xlink:href="#ap"/><use transform="matrix(0.010850694444444444,0,0,0.010850694444444444,12.47829861111111,0)" xlink:href="#Z"/><use transform="matrix(0.010850694444444444,0,0,0.010850694444444444,21.19140625,0)" xlink:href="#ak"/><use transform="matrix(0.010850694444444444,0,0,0.010850694444444444,28.461371527777775,0)" xlink:href="#ad"/><use transform="matrix(0.010850694444444444,0,0,0.010850694444444444,33.84331597222222,0)" xlink:href="#aa"/><use transform="matrix(0.010850694444444444,0,0,0.010850694444444444,46.53862847222222,0)" xlink:href="#aj"/><use transform="matrix(0.010850694444444444,0,0,0.010850694444444444,51.920572916666664,0)" xlink:href="#ab"/><use transform="matrix(0.010850694444444444,0,0,0.010850694444444444,64.87630208333333,0)" xlink:href="#ac"/><use transform="matrix(0.010850694444444444,0,0,0.010850694444444444,75.01085069444444,0)" xlink:href="#aa"/><use transform="matrix(0.010850694444444444,0,0,0.010850694444444444,87.70616319444444,0)" xlink:href="#X"/><use transform="matrix(0.010850694444444444,0,0,0.010850694444444444,101.03081597222221,0)" xlink:href="#Y"/><use transform="matrix(0.010850694444444444,0,0,0.010850694444444444,114.17100694444441,0)" xlink:href="#al"/><use transform="matrix(0.010850694444444444,0,0,0.010850694444444444,127.3003472222222,0)" xlink:href="#ak"/></g><path d="M135 0v-1490h468l242 684c30 94 76 293 111 455 34-161 80-360 110-455l238-684h470V0h-307c0-447-3-765 11-1227-122 503-246 788-395 1227H826C676-435 552-717 427-1215c15 453 11 775 11 1215H135" id="au"/><path d="M601 0v-560L49-1490h357l252 464c38 68 67 130 97 208 96-243 225-446 337-672h356L905-560V0H601" id="av"/><g id="A"><use transform="matrix(0.010850694444444444,0,0,0.010850694444444444,0,0)" xlink:href="#aq"/><use transform="matrix(0.010850694444444444,0,0,0.010850694444444444,14.55078125,0)" xlink:href="#as"/><use transform="matrix(0.010850694444444444,0,0,0.010850694444444444,30.81597222222222,0)" xlink:href="#au"/><use transform="matrix(0.010850694444444444,0,0,0.010850694444444444,51.51909722222222,0)" xlink:href="#au"/><use transform="matrix(0.010850694444444444,0,0,0.010850694444444444,72.22222222222223,0)" xlink:href="#N"/><use transform="matrix(0.010850694444444444,0,0,0.010850694444444444,88.81293402777779,0)" xlink:href="#O"/><use transform="matrix(0.010850694444444444,0,0,0.010850694444444444,102.75607638888889,0)" xlink:href="#av"/></g><g id="C"><use transform="matrix(0.010850694444444444,0,0,0.010850694444444444,0,0)" xlink:href="#ap"/><use transform="matrix(0.010850694444444444,0,0,0.010850694444444444,12.47829861111111,0)" xlink:href="#Z"/><use transform="matrix(0.010850694444444444,0,0,0.010850694444444444,21.19140625,0)" xlink:href="#ak"/><use transform="matrix(0.010850694444444444,0,0,0.010850694444444444,28.461371527777775,0)" xlink:href="#ad"/><use transform="matrix(0.010850694444444444,0,0,0.010850694444444444,33.84331597222222,0)" xlink:href="#aa"/><use transform="matrix(0.010850694444444444,0,0,0.010850694444444444,46.53862847222222,0)" xlink:href="#aj"/><use transform="matrix(0.010850694444444444,0,0,0.010850694444444444,51.920572916666664,0)" xlink:href="#ab"/><use transform="matrix(0.010850694444444444,0,0,0.010850694444444444,64.87630208333333,0)" xlink:href="#ac"/><use transform="matrix(0.010850694444444444,0,0,0.010850694444444444,75.75954861111111,0)" xlink:href="#ad"/><use transform="matrix(0.010850694444444444,0,0,0.010850694444444444,81.14149305555556,0)" xlink:href="#ae"/></g><path d="M611 442c-248 0-391-105-460-228l146-94c47 65 117 165 314 165 178 0 307-82 307-266v-224h-17C863-141 792-18 576-18c-268 0-472-195-472-546 0-346 197-568 476-568 216 0 288 133 326 193h17v-179h175V29c0 289-215 413-487 413zm-5-620c203 0 314-146 314-390 0-237-108-403-314-403-213 0-319 180-319 403 0 230 109 390 319 390" id="aw"/><g id="D"><use transform="matrix(0.010850694444444444,0,0,0.010850694444444444,0,0)" xlink:href="#aw"/><use transform="matrix(0.010850694444444444,0,0,0.010850694444444444,13.628472222222221,0)" xlink:href="#ab"/><use transform="matrix(0.010850694444444444,0,0,0.010850694444444444,26.58420138888889,0)" xlink:href="#al"/><use transform="matrix(0.010850694444444444,0,0,0.010850694444444444,39.713541666666664,0)" xlink:href="#ab"/><use transform="matrix(0.010850694444444444,0,0,0.010850694444444444,52.66927083333333,0)" xlink:href="#Z"/><use transform="matrix(0.010850694444444444,0,0,0.010850694444444444,61.035156249999986,0)" xlink:href="#ap"/><use transform="matrix(0.010850694444444444,0,0,0.010850694444444444,73.5134548611111,0)" xlink:href="#ak"/><use transform="matrix(0.010850694444444444,0,0,0.010850694444444444,80.56640624999999,0)" xlink:href="#ab"/><use transform="matrix(0.010850694444444444,0,0,0.010850694444444444,93.52213541666666,0)" xlink:href="#ae"/><use transform="matrix(0.010850694444444444,0,0,0.010850694444444444,107.12890624999997,0)" xlink:href="#ac"/><use transform="matrix(0.010850694444444444,0,0,0.010850694444444444,117.2634548611111,0)" xlink:href="#ap"/><use transform="matrix(0.010850694444444444,0,0,0.010850694444444444,129.7417534722222,0)" xlink:href="#ak"/></g><path d="M140 405l46-156c120 36 205 19 263-150l32-93L54-1118h197c107 313 237 620 324 950 87-331 219-637 326-950h196L606 167c-68 178-176 259-334 259-64 0-113-12-132-21" id="ax"/><g id="E"><use transform="matrix(0.010850694444444444,0,0,0.010850694444444444,0,0)" xlink:href="#al"/><use transform="matrix(0.010850694444444444,0,0,0.010850694444444444,13.129340277777777,0)" xlink:href="#ab"/><use transform="matrix(0.010850694444444444,0,0,0.010850694444444444,26.085069444444443,0)" xlink:href="#Y"/><use transform="matrix(0.010850694444444444,0,0,0.010850694444444444,39.225260416666664,0)" xlink:href="#ak"/><use transform="matrix(0.010850694444444444,0,0,0.010850694444444444,46.49522569444444,0)" xlink:href="#Z"/><use transform="matrix(0.010850694444444444,0,0,0.010850694444444444,54.86111111111111,0)" xlink:href="#ap"/><use transform="matrix(0.010850694444444444,0,0,0.010850694444444444,67.33940972222221,0)" xlink:href="#aj"/><use transform="matrix(0.010850694444444444,0,0,0.010850694444444444,72.72135416666666,0)" xlink:href="#ac"/><use transform="matrix(0.010850694444444444,0,0,0.010850694444444444,82.85590277777777,0)" xlink:href="#W"/><use transform="matrix(0.010850694444444444,0,0,0.010850694444444444,94.58550347222221,0)" xlink:href="#Y"/><use transform="matrix(0.010850694444444444,0,0,0.010850694444444444,107.72569444444441,0)" xlink:href="#at"/><use transform="matrix(0.010850694444444444,0,0,0.010850694444444444,127.19184027777776,0)" xlink:href="#at"/><use transform="matrix(0.010850694444444444,0,0,0.010850694444444444,146.6579861111111,0)" xlink:href="#ap"/><use transform="matrix(0.010850694444444444,0,0,0.010850694444444444,159.1362847222222,0)" xlink:href="#Z"/><use transform="matrix(0.010850694444444444,0,0,0.010850694444444444,167.8493923611111,0)" xlink:href="#ax"/></g><path d="M481 0L54-1118h197c107 314 236 620 325 951 87-331 217-637 324-951h197L670 0H481" id="ay"/><g id="F"><use transform="matrix(0.010850694444444444,0,0,0.010850694444444444,0,0)" xlink:href="#at"/><use transform="matrix(0.010850694444444444,0,0,0.010850694444444444,19.466145833333332,0)" xlink:href="#X"/><use transform="matrix(0.010850694444444444,0,0,0.010850694444444444,32.79079861111111,0)" xlink:href="#ae"/><use transform="matrix(0.010850694444444444,0,0,0.010850694444444444,46.39756944444444,0)" xlink:href="#ab"/><use transform="matrix(0.010850694444444444,0,0,0.010850694444444444,59.35329861111111,0)" xlink:href="#aj"/><use transform="matrix(0.010850694444444444,0,0,0.010850694444444444,64.73524305555556,0)" xlink:href="#ac"/><use transform="matrix(0.010850694444444444,0,0,0.010850694444444444,73.11197916666667,0)" xlink:href="#ay"/><use transform="matrix(0.010850694444444444,0,0,0.010850694444444444,85.16710069444446,0)" xlink:href="#ab"/><use transform="matrix(0.010850694444444444,0,0,0.010850694444444444,98.12282986111113,0)" xlink:href="#Z"/><use transform="matrix(0.010850694444444444,0,0,0.010850694444444444,106.4887152777778,0)" xlink:href="#W"/><use transform="matrix(0.010850694444444444,0,0,0.010850694444444444,118.21831597222224,0)" xlink:href="#ad"/><use transform="matrix(0.010850694444444444,0,0,0.010850694444444444,123.60026041666669,0)" xlink:href="#X"/><use transform="matrix(0.010850694444444444,0,0,0.010850694444444444,136.92491319444446,0)" xlink:href="#al"/></g><path d="M135 0v-1490h591c327 0 492 160 492 383 0 177-115 286-268 320v15c168 8 326 140 326 361 0 236-176 411-512 411H135zm305-251h264c179 0 258-76 258-189 0-125-97-215-250-215H440v404zm0-613h241c131 0 228-74 228-194 0-109-79-183-222-183H440v377" id="az"/><path d="M975 0v231H0V0h975" id="aA"/><path d="M135 0v-1490h340l471 754c59 97 122 210 187 365-32-387-14-721-19-1119h312V0h-341C855-382 627-689 427-1113c32 420 16 695 20 1113H135" id="aB"/><g id="G"><use transform="matrix(0.010850694444444444,0,0,0.010850694444444444,0,0)" xlink:href="#az"/><use transform="matrix(0.010850694444444444,0,0,0.010850694444444444,14.702690972222221,0)" xlink:href="#Q"/><use transform="matrix(0.010850694444444444,0,0,0.010850694444444444,20.94184027777778,0)" xlink:href="#N"/><use transform="matrix(0.010850694444444444,0,0,0.010850694444444444,37.19618055555556,0)" xlink:href="#aq"/><use transform="matrix(0.010850694444444444,0,0,0.010850694444444444,51.74696180555556,0)" xlink:href="#aA"/><use transform="matrix(0.010850694444444444,0,0,0.010850694444444444,62.326388888888886,0)" xlink:href="#N"/><use transform="matrix(0.010850694444444444,0,0,0.010850694444444444,78.91710069444444,0)" xlink:href="#aB"/><use transform="matrix(0.010850694444444444,0,0,0.010850694444444444,95.85503472222221,0)" xlink:href="#N"/><use transform="matrix(0.010850694444444444,0,0,0.010850694444444444,112.4457465277778,0)" xlink:href="#S"/><use transform="matrix(0.010850694444444444,0,0,0.010850694444444444,123.07942708333334,0)" xlink:href="#av"/><use transform="matrix(0.010850694444444444,0,0,0.010850694444444444,139.32291666666669,0)" xlink:href="#aq"/><use transform="matrix(0.010850694444444444,0,0,0.010850694444444444,153.87369791666669,0)" xlink:href="#Q"/><use transform="matrix(0.010850694444444444,0,0,0.010850694444444444,160.11284722222223,0)" xlink:href="#aq"/></g><path d="M678-1118v154H420V0H240v-964H20v-154h220v-149c0-194 155-293 318-293 85 0 141 18 168 30l-50 154c-19-6-47-17-97-17-111 0-159 58-159 166v109h258" id="aC"/><g id="H"><use transform="matrix(0.010850694444444444,0,0,0.010850694444444444,0,0)" xlink:href="#aC"/><use transform="matrix(0.010850694444444444,0,0,0.010850694444444444,8.22482638888889,0)" xlink:href="#Z"/><use transform="matrix(0.010850694444444444,0,0,0.010850694444444444,16.590711805555557,0)" xlink:href="#ap"/><use transform="matrix(0.010850694444444444,0,0,0.010850694444444444,29.069010416666664,0)" xlink:href="#at"/><use transform="matrix(0.010850694444444444,0,0,0.010850694444444444,48.53515625,0)" xlink:href="#ad"/><use transform="matrix(0.010850694444444444,0,0,0.010850694444444444,53.91710069444444,0)" xlink:href="#al"/><use transform="matrix(0.010850694444444444,0,0,0.010850694444444444,67.04644097222221,0)" xlink:href="#aw"/><use transform="matrix(0.010850694444444444,0,0,0.010850694444444444,80.67491319444443,0)" xlink:href="#ac"/><use transform="matrix(0.010850694444444444,0,0,0.010850694444444444,90.80946180555556,0)" xlink:href="#ae"/><use transform="matrix(0.010850694444444444,0,0,0.010850694444444444,104.41623263888887,0)" xlink:href="#ab"/><use transform="matrix(0.010850694444444444,0,0,0.010850694444444444,117.37196180555556,0)" xlink:href="#W"/><use transform="matrix(0.010850694444444444,0,0,0.010850694444444444,129.1015625,0)" xlink:href="#aa"/><use transform="matrix(0.010850694444444444,0,0,0.010850694444444444,141.796875,0)" xlink:href="#Z"/><use transform="matrix(0.010850694444444444,0,0,0.010850694444444444,150.50998263888889,0)" xlink:href="#ad"/><use transform="matrix(0.010850694444444444,0,0,0.010850694444444444,155.89192708333334,0)" xlink:href="#am"/><use transform="matrix(0.010850694444444444,0,0,0.010850694444444444,169.49869791666669,0)" xlink:href="#ak"/><use transform="matrix(0.010850694444444444,0,0,0.010850694444444444,176.76866319444446,0)" xlink:href="#ad"/><use transform="matrix(0.010850694444444444,0,0,0.010850694444444444,182.1506076388889,0)" xlink:href="#X"/><use transform="matrix(0.010850694444444444,0,0,0.010850694444444444,195.47526041666669,0)" xlink:href="#al"/></g><g id="I"><use transform="matrix(0.010850694444444444,0,0,0.010850694444444444,0,0)" xlink:href="#aa"/><use transform="matrix(0.010850694444444444,0,0,0.010850694444444444,12.6953125,0)" xlink:href="#aj"/><use transform="matrix(0.010850694444444444,0,0,0.010850694444444444,18.077256944444443,0)" xlink:href="#ap"/><use transform="matrix(0.010850694444444444,0,0,0.010850694444444444,30.555555555555554,0)" xlink:href="#ad"/><use transform="matrix(0.010850694444444444,0,0,0.010850694444444444,35.9375,0)" xlink:href="#at"/><use transform="matrix(0.010850694444444444,0,0,0.010850694444444444,55.40364583333333,0)" xlink:href="#W"/></g><g id="J"><use transform="matrix(0.010850694444444444,0,0,0.010850694444444444,0,0)" xlink:href="#an"/><use transform="matrix(0.010850694444444444,0,0,0.010850694444444444,13.606770833333332,0)" xlink:href="#ad"/><use transform="matrix(0.010850694444444444,0,0,0.010850694444444444,18.98871527777778,0)" xlink:href="#ap"/><use transform="matrix(0.010850694444444444,0,0,0.010850694444444444,31.46701388888889,0)" xlink:href="#W"/><use transform="matrix(0.010850694444444444,0,0,0.010850694444444444,43.196614583333336,0)" xlink:href="#ac"/><use transform="matrix(0.010850694444444444,0,0,0.010850694444444444,53.33116319444444,0)" xlink:href="#W"/><use transform="matrix(0.010850694444444444,0,0,0.010850694444444444,65.06076388888889,0)" xlink:href="#aa"/><use transform="matrix(0.010850694444444444,0,0,0.010850694444444444,77.75607638888889,0)" xlink:href="#X"/><use transform="matrix(0.010850694444444444,0,0,0.010850694444444444,91.08072916666666,0)" xlink:href="#Z"/><use transform="matrix(0.010850694444444444,0,0,0.010850694444444444,99.07769097222221,0)" xlink:href="#ab"/></g><g id="K"><use transform="matrix(0.010850694444444444,0,0,0.010850694444444444,0,0)" xlink:href="#aw"/><use transform="matrix(0.010850694444444444,0,0,0.010850694444444444,13.628472222222221,0)" xlink:href="#Z"/><use transform="matrix(0.010850694444444444,0,0,0.010850694444444444,21.62543402777778,0)" xlink:href="#X"/><use transform="matrix(0.010850694444444444,0,0,0.010850694444444444,34.95008680555556,0)" xlink:href="#Y"/><use transform="matrix(0.010850694444444444,0,0,0.010850694444444444,48.09027777777778,0)" xlink:href="#am"/><use transform="matrix(0.010850694444444444,0,0,0.010850694444444444,61.69704861111112,0)" xlink:href="#W"/></g><g id="L"><use transform="matrix(0.010850694444444444,0,0,0.010850694444444444,0,0)" xlink:href="#am"/><use transform="matrix(0.010850694444444444,0,0,0.010850694444444444,13.606770833333332,0)" xlink:href="#Y"/><use transform="matrix(0.010850694444444444,0,0,0.010850694444444444,26.746961805555554,0)" xlink:href="#an"/><use transform="matrix(0.010850694444444444,0,0,0.010850694444444444,40.353732638888886,0)" xlink:href="#aj"/><use transform="matrix(0.010850694444444444,0,0,0.010850694444444444,45.73567708333333,0)" xlink:href="#ad"/><use transform="matrix(0.010850694444444444,0,0,0.010850694444444444,51.11762152777778,0)" xlink:href="#aa"/><use transform="matrix(0.010850694444444444,0,0,0.010850694444444444,64.02994791666666,0)" xlink:href="#ap"/><use transform="matrix(0.010850694444444444,0,0,0.010850694444444444,76.50824652777777,0)" xlink:href="#ak"/><use transform="matrix(0.010850694444444444,0,0,0.010850694444444444,83.56119791666666,0)" xlink:href="#ab"/><use transform="matrix(0.010850694444444444,0,0,0.010850694444444444,96.51692708333333,0)" xlink:href="#W"/></g><g id="M"><use transform="matrix(0.010850694444444444,0,0,0.010850694444444444,0,0)" xlink:href="#aa"/><use transform="matrix(0.010850694444444444,0,0,0.010850694444444444,12.6953125,0)" xlink:href="#X"/><use transform="matrix(0.010850694444444444,0,0,0.010850694444444444,26.01996527777778,0)" xlink:href="#al"/><use transform="matrix(0.010850694444444444,0,0,0.010850694444444444,39.14930555555556,0)" xlink:href="#ak"/><use transform="matrix(0.010850694444444444,0,0,0.010850694444444444,46.52777777777778,0)" xlink:href="#ap"/><use transform="matrix(0.010850694444444444,0,0,0.010850694444444444,59.006076388888886,0)" xlink:href="#ad"/><use transform="matrix(0.010850694444444444,0,0,0.010850694444444444,64.38802083333333,0)" xlink:href="#al"/><use transform="matrix(0.010850694444444444,0,0,0.010850694444444444,77.5173611111111,0)" xlink:href="#W"/></g></defs></g></svg>